<svg width="74" height="44" viewBox="0 0 74 44" fill="none" xmlns="http://www.w3.org/2000/svg">
<path d="M72.5324 2.98438C72.0535 3.81127 71.2219 4.68184 69.8037 5.53682L48.8833 18.0853C50.3608 19.1852 51.3266 20.931 51.3266 22.9078V24.3088L62.7658 30.6228C63.4725 31.0129 63.7284 31.9069 63.3383 32.6136C63.0684 33.1004 62.5676 33.3703 62.0528 33.3703C61.814 33.3703 61.5675 33.3126 61.3398 33.1909L51.3266 27.6601V33.3282C51.3266 36.6451 48.629 39.3458 45.3059 39.3458H28.0223C24.6991 39.3458 22 36.6467 22 33.3282V27.6569L11.9806 33.1909C11.7559 33.3126 11.5078 33.3703 11.2738 33.3703C10.7543 33.3703 10.2566 33.0988 9.98823 32.6136C9.59974 31.9069 9.85093 31.0129 10.5624 30.6228L22 24.3073V22.9078C22 20.9295 22.9642 19.1837 24.4432 18.0868L3.52131 5.53682C2.09843 4.6834 1.2653 3.81283 0.789447 2.98438C0.302674 3.83935 0 4.81602 0 5.86757V38.1288C0 41.3553 2.63981 43.9998 5.86469 43.9998H67.4634C70.6852 43.9998 73.3281 41.3568 73.3281 38.1288V5.86757C73.3219 4.81602 73.0192 3.83935 72.5324 2.98438Z" fill="#7F8080"/>
<path d="M5.02616 3.02049L25.5315 15.3225C25.7936 9.39536 30.6816 4.65088 36.6649 4.65088C42.6482 4.65088 47.5346 9.3938 47.7999 15.3178L68.2959 3.02049C71.0667 1.35891 70.6814 0 67.4612 0H5.8593C2.63442 0 2.2553 1.35891 5.02616 3.02049Z" fill="#7F8080"/>
<path d="M36.6626 7.58423C32.1241 7.58423 28.4374 11.2772 28.4374 15.8141V19.8191H28.0224C26.3187 19.8191 24.9348 21.2092 24.9348 22.9082V33.3318C24.9348 35.0261 26.3202 36.4178 28.0224 36.4178H45.306C47.0097 36.4178 48.3936 35.0277 48.3936 33.3318V22.9082C48.3936 21.2092 47.0081 19.8191 45.306 19.8191H44.8879V15.8141C44.8879 11.2756 41.2012 7.58423 36.6626 7.58423ZM40.7737 19.8207H32.5516V15.8157C32.5516 13.5441 34.3988 11.6984 36.6626 11.6984C38.9264 11.6984 40.7737 13.5441 40.7737 15.8157V19.8207Z" fill="#7F8080"/>
</svg>
