<svg width="374" height="48" viewBox="0 0 374 48" fill="none" xmlns="http://www.w3.org/2000/svg">
<path d="M131.657 34.334L124.749 29.2041L131.053 20.5964L121.122 17.2055L123.799 9.03246L133.73 12.3364V1.20724H142.365V12.3364L152.296 9.03246L154.973 17.2055L145.042 20.5964L151.346 29.2041L144.351 34.334L138.047 25.7263L131.657 34.334Z" fill="#DE2E24"/>
<path d="M14.3769 37.1348C12.101 37.1348 9.98532 36.7163 8.02992 35.8793C6.10659 35.0423 4.4397 33.8833 3.02925 32.4024C1.65086 30.8893 0.641112 29.1348 0 27.1388L5.43342 24.7726C6.29892 26.833 7.54909 28.4587 9.18392 29.6499C10.8188 30.8089 12.662 31.3883 14.7135 31.3883C15.8675 31.3883 16.8612 31.2113 17.6947 30.8571C18.5602 30.4708 19.2173 29.9557 19.6661 29.3119C20.1469 28.668 20.3874 27.8954 20.3874 26.994C20.3874 25.9316 20.0668 25.0624 19.4257 24.3863C18.8166 23.6781 17.887 23.1308 16.6369 22.7445L9.76093 20.5231C6.97209 19.6539 4.87245 18.3501 3.462 16.6117C2.05156 14.8732 1.34633 12.829 1.34633 10.4789C1.34633 8.41851 1.8432 6.5996 2.83692 5.02213C3.8627 3.44467 5.27314 2.22133 7.06826 1.35211C8.89542 0.450704 10.979 0 13.3191 0C15.4668 0 17.4382 0.386318 19.2334 1.15895C21.0285 1.8994 22.5671 2.94567 23.8494 4.29779C25.1636 5.61771 26.1413 7.17907 26.7824 8.98189L21.3971 11.3964C20.6919 9.59356 19.634 8.20925 18.2236 7.24346C16.8132 6.24547 15.1783 5.74648 13.3191 5.74648C12.2292 5.74648 11.2675 5.93964 10.4341 6.32595C9.60065 6.68008 8.94351 7.19517 8.46267 7.87123C8.0139 8.51509 7.78951 9.28773 7.78951 10.1891C7.78951 11.1871 8.11006 12.0724 8.75117 12.8451C9.39229 13.5855 10.37 14.165 11.6843 14.5835L18.2717 16.66C21.1246 17.5936 23.2563 18.8813 24.6668 20.5231C26.1093 22.165 26.8305 24.1932 26.8305 26.6076C26.8305 28.668 26.3016 30.4869 25.2438 32.0644C24.1859 33.6418 22.7274 34.8813 20.8682 35.7827C19.009 36.6841 16.8452 37.1348 14.3769 37.1348ZM14.8578 48C14.0243 48 13.0787 47.8551 12.0208 47.5654C10.9951 47.3078 10.1296 46.9215 9.42434 46.4064L10.7707 42.7847C11.2515 43.1066 11.7804 43.3481 12.3574 43.5091C12.9344 43.7022 13.4954 43.7988 14.0403 43.7988C14.7456 43.7988 15.2905 43.6539 15.6752 43.3642C16.0598 43.0744 16.2522 42.672 16.2522 42.1569C16.2522 41.5453 15.8675 41.0463 15.0982 40.66C14.3288 40.3058 13.2069 40.0483 11.7323 39.8873L12.7421 36.0724H16.4445L16.0118 38.004C17.6787 38.2294 18.9929 38.7445 19.9546 39.5493C20.9163 40.3863 21.3971 41.4165 21.3971 42.6398C21.3971 44.2817 20.8041 45.5855 19.618 46.5513C18.432 47.5171 16.8452 48 14.8578 48Z" fill="#352E76"/>
<path d="M32.1899 36.5553V10.2857H38.4889V36.5553H32.1899ZM32.1899 7.34004V0.579475H38.4889V7.34004H32.1899Z" fill="#352E76"/>
<path d="M47.334 36.5553V15.9356H42.7179V10.2857H47.334V9.4165C47.334 7.42052 47.7346 5.73038 48.536 4.34608C49.3695 2.92958 50.5235 1.85111 51.998 1.11066C53.4726 0.370221 55.2196 0 57.2391 0C57.6238 0 58.0405 0.0321927 58.4893 0.0965782C58.9701 0.128773 59.3708 0.177063 59.6914 0.241448V5.69819C59.3708 5.6338 59.0663 5.60161 58.7778 5.60161C58.5214 5.56942 58.2809 5.55332 58.0565 5.55332C56.6461 5.55332 55.5562 5.87525 54.7869 6.51911C54.0175 7.13078 53.6329 8.09658 53.6329 9.4165V10.2857H59.451V15.9356H53.6329V36.5553H47.334Z" fill="#352E76"/>
<path d="M63.7447 36.5553V10.2857H69.6589V16.1288L69.1781 15.2596C69.7871 13.2958 70.7328 11.9276 72.015 11.1549C73.3293 10.3823 74.9 9.99598 76.7272 9.99598H78.2658V15.5976H76.0059C74.2108 15.5976 72.7683 16.161 71.6784 17.2877C70.5885 18.3823 70.0436 19.9276 70.0436 21.9235V36.5553H63.7447Z" fill="#352E76"/>
<path d="M94.1345 37.1348C91.4418 37.1348 89.0857 36.5231 87.0662 35.2998C85.0467 34.0765 83.476 32.4185 82.354 30.326C81.2321 28.2334 80.6711 25.9155 80.6711 23.3722C80.6711 20.7324 81.2321 18.3984 82.354 16.3702C83.508 14.3099 85.0628 12.6841 87.0181 11.493C89.0056 10.3018 91.2174 9.70623 93.6536 9.70623C95.7052 9.70623 97.5003 10.0443 99.039 10.7203C100.61 11.3964 101.94 12.33 103.03 13.5211C104.12 14.7123 104.953 16.0805 105.53 17.6258C106.107 19.1388 106.396 20.7807 106.396 22.5513C106.396 23.002 106.364 23.4688 106.3 23.9517C106.268 24.4346 106.187 24.8531 106.059 25.2072H85.8641V20.3783H102.501L99.5198 22.6479C99.8083 21.167 99.7282 19.8471 99.2794 18.6881C98.8627 17.5292 98.1575 16.6117 97.1637 15.9356C96.2021 15.2596 95.032 14.9215 93.6536 14.9215C92.3394 14.9215 91.1693 15.2596 90.1436 15.9356C89.1178 16.5795 88.3324 17.5453 87.7875 18.833C87.2746 20.0885 87.0823 21.6177 87.2105 23.4205C87.0823 25.0302 87.2906 26.4628 87.8356 27.7183C88.4126 28.9416 89.246 29.8913 90.3359 30.5674C91.4578 31.2435 92.7401 31.5815 94.1826 31.5815C95.6251 31.5815 96.8432 31.2757 97.8369 30.664C98.8627 30.0523 99.6641 29.2314 100.241 28.2012L105.338 30.7123C104.825 31.9678 104.024 33.0785 102.934 34.0443C101.844 35.0101 100.546 35.7666 99.039 36.3139C97.5644 36.8612 95.9296 37.1348 94.1345 37.1348Z" fill="#352E76"/>
<path d="M137.892 37.1348C135.264 37.1348 132.811 36.668 130.535 35.7344C128.26 34.8008 126.272 33.497 124.573 31.8229C122.874 30.1489 121.544 28.1851 120.582 25.9316C119.653 23.6459 119.188 21.1831 119.188 18.5433C119.188 15.8712 119.653 13.4084 120.582 11.1549C121.512 8.90141 122.826 6.93763 124.525 5.26358C126.224 3.58954 128.211 2.30181 130.487 1.4004C132.763 0.466801 135.232 0 137.892 0C140.553 0 143.021 0.466801 145.297 1.4004C147.573 2.334 149.56 3.63783 151.259 5.31187C152.958 6.95372 154.273 8.90141 155.202 11.1549C156.164 13.4084 156.645 15.8712 156.645 18.5433C156.645 21.1831 156.164 23.6459 155.202 25.9316C154.241 28.1851 152.91 30.1489 151.211 31.8229C149.512 33.497 147.525 34.8008 145.249 35.7344C143.005 36.668 140.553 37.1348 137.892 37.1348ZM137.892 31.1469C139.655 31.1469 141.274 30.841 142.749 30.2294C144.223 29.5855 145.505 28.7002 146.595 27.5734C147.717 26.4467 148.567 25.1107 149.144 23.5654C149.753 22.0201 150.057 20.3461 150.057 18.5433C150.057 16.7404 149.753 15.0825 149.144 13.5694C148.567 12.0241 147.717 10.6881 146.595 9.56137C145.505 8.40241 144.223 7.5171 142.749 6.90543C141.274 6.29376 139.655 5.98793 137.892 5.98793C136.161 5.98793 134.558 6.29376 133.084 6.90543C131.609 7.5171 130.311 8.40241 129.189 9.56137C128.099 10.6881 127.25 12.0241 126.641 13.5694C126.032 15.0825 125.727 16.7404 125.727 18.5433C125.727 20.3461 126.032 22.0201 126.641 23.5654C127.25 25.1107 128.099 26.4467 129.189 27.5734C130.311 28.7002 131.609 29.5855 133.084 30.2294C134.558 30.841 136.161 31.1469 137.892 31.1469Z" fill="#352E76"/>
<path d="M161.931 36.5553V0H168.229V36.5553H161.931Z" fill="#352E76"/>
<path d="M183.373 37.1348C181.354 37.1348 179.591 36.6841 178.084 35.7827C176.61 34.8813 175.472 33.6258 174.67 32.0161C173.901 30.4064 173.516 28.5231 173.516 26.3662V10.2857H179.815V25.835C179.815 26.9296 180.024 27.8954 180.44 28.7324C180.889 29.5372 181.514 30.1811 182.316 30.664C183.149 31.1147 184.079 31.34 185.104 31.34C186.13 31.34 187.044 31.1147 187.845 30.664C188.647 30.1811 189.272 29.5211 189.72 28.6841C190.169 27.8471 190.394 26.8491 190.394 25.6901V10.2857H196.693V36.5553H190.73V31.3883L191.259 32.3058C190.65 33.9155 189.64 35.1227 188.23 35.9276C186.852 36.7324 185.233 37.1348 183.373 37.1348Z" fill="#352E76"/>
<path d="M212.501 37.1348C209.712 37.1348 207.276 36.4748 205.192 35.1549C203.141 33.8028 201.73 31.9839 200.961 29.6982L205.673 27.4286C206.346 28.9095 207.276 30.0684 208.462 30.9054C209.68 31.7425 211.027 32.161 212.501 32.161C213.655 32.161 214.569 31.9034 215.242 31.3883C215.915 30.8732 216.252 30.1972 216.252 29.3602C216.252 28.8451 216.107 28.4266 215.819 28.1046C215.562 27.7505 215.194 27.4608 214.713 27.2354C214.264 26.9779 213.767 26.7686 213.222 26.6076L208.943 25.4004C206.731 24.7565 205.048 23.7746 203.894 22.4547C202.772 21.1348 202.211 19.5734 202.211 17.7706C202.211 16.161 202.612 14.7606 203.413 13.5694C204.247 12.3461 205.385 11.3964 206.827 10.7203C208.302 10.0443 209.985 9.70623 211.876 9.70623C214.344 9.70623 216.524 10.3018 218.415 11.493C220.307 12.6841 221.653 14.3581 222.454 16.5151L217.646 18.7847C217.197 17.5936 216.444 16.6439 215.386 15.9356C214.328 15.2274 213.142 14.8732 211.828 14.8732C210.77 14.8732 209.937 15.1147 209.328 15.5976C208.719 16.0805 208.414 16.7083 208.414 17.4809C208.414 17.9638 208.542 18.3823 208.799 18.7364C209.055 19.0905 209.408 19.3803 209.857 19.6056C210.337 19.831 210.882 20.0402 211.491 20.2334L215.675 21.4889C217.822 22.1328 219.473 23.0986 220.627 24.3863C221.813 25.674 222.406 27.2515 222.406 29.1187C222.406 30.6962 221.99 32.0966 221.156 33.3199C220.323 34.5111 219.169 35.4447 217.694 36.1207C216.22 36.7968 214.489 37.1348 212.501 37.1348ZM212.501 48C211.668 48 210.722 47.8551 209.664 47.5654C208.638 47.3078 207.773 46.9215 207.068 46.4064L208.414 42.7847C208.895 43.1066 209.424 43.3481 210.001 43.5091C210.578 43.7022 211.139 43.7988 211.684 43.7988C212.389 43.7988 212.934 43.6539 213.319 43.3642C213.703 43.0744 213.896 42.672 213.896 42.1569C213.896 41.5453 213.511 41.0463 212.742 40.66C211.972 40.3058 210.85 40.0483 209.376 39.8873L210.385 36.0724H214.088L213.655 38.004C215.322 38.2294 216.636 38.7445 217.598 39.5493C218.56 40.3863 219.04 41.4165 219.04 42.6398C219.04 44.2817 218.447 45.5855 217.261 46.5513C216.075 47.5171 214.489 48 212.501 48Z" fill="#352E76"/>
<path d="M239.172 36.8451C236.222 36.8451 233.931 36.0402 232.296 34.4306C230.693 32.7887 229.892 30.4869 229.892 27.5251V15.9356H225.372V10.2857H225.853C227.135 10.2857 228.128 9.94769 228.834 9.27163C229.539 8.59557 229.892 7.61368 229.892 6.32595V4.29779H236.19V10.2857H242.201V15.9356H236.19V27.1871C236.19 28.0563 236.335 28.7968 236.623 29.4084C236.944 30.0201 237.425 30.4869 238.066 30.8089C238.739 31.1308 239.588 31.2917 240.614 31.2917C240.838 31.2917 241.095 31.2757 241.383 31.2435C241.704 31.2113 242.009 31.1791 242.297 31.1469V36.5553C241.848 36.6197 241.335 36.6841 240.758 36.7485C240.181 36.8129 239.652 36.8451 239.172 36.8451Z" fill="#352E76"/>
<path d="M256.438 37.1348C254.418 37.1348 252.655 36.6841 251.148 35.7827C249.674 34.8813 248.536 33.6258 247.735 32.0161C246.965 30.4064 246.581 28.5231 246.581 26.3662V10.2857H252.879V25.835C252.879 26.9296 253.088 27.8954 253.505 28.7324C253.953 29.5372 254.578 30.1811 255.38 30.664C256.213 31.1147 257.143 31.34 258.169 31.34C259.194 31.34 260.108 31.1147 260.909 30.664C261.711 30.1811 262.336 29.5211 262.785 28.6841C263.233 27.8471 263.458 26.8491 263.458 25.6901V10.2857H269.757V36.5553H263.794V31.3883L264.323 32.3058C263.714 33.9155 262.705 35.1227 261.294 35.9276C259.916 36.7324 258.297 37.1348 256.438 37.1348Z" fill="#352E76"/>
<path d="M275.612 36.5553V10.2857H281.526V16.1288L281.045 15.2596C281.655 13.2958 282.6 11.9276 283.882 11.1549C285.197 10.3823 286.767 9.99598 288.595 9.99598H290.133V15.5976H287.873C286.078 15.5976 284.636 16.161 283.546 17.2877C282.456 18.3823 281.911 19.9276 281.911 21.9235V36.5553H275.612Z" fill="#352E76"/>
<path d="M302.925 37.1348C300.905 37.1348 299.142 36.6841 297.635 35.7827C296.161 34.8813 295.023 33.6258 294.221 32.0161C293.452 30.4064 293.067 28.5231 293.067 26.3662V10.2857H299.366V25.835C299.366 26.9296 299.575 27.8954 299.991 28.7324C300.44 29.5372 301.065 30.1811 301.867 30.664C302.7 31.1147 303.63 31.34 304.656 31.34C305.681 31.34 306.595 31.1147 307.396 30.664C308.198 30.1811 308.823 29.5211 309.272 28.6841C309.72 27.8471 309.945 26.8491 309.945 25.6901V10.2857H316.244V36.5553H310.281V31.3883L310.81 32.3058C310.201 33.9155 309.191 35.1227 307.781 35.9276C306.403 36.7324 304.784 37.1348 302.925 37.1348Z" fill="#352E76"/>
<path d="M334.697 37.1348C332.1 37.1348 329.76 36.5392 327.677 35.3481C325.625 34.1247 324.006 32.4829 322.82 30.4225C321.634 28.33 321.041 25.9799 321.041 23.3722C321.041 20.7646 321.634 18.4306 322.82 16.3702C324.006 14.3099 325.625 12.6841 327.677 11.493C329.76 10.3018 332.1 9.70623 334.697 9.70623C336.556 9.70623 338.287 10.0443 339.89 10.7203C341.493 11.3642 342.871 12.2656 344.025 13.4245C345.211 14.5513 346.06 15.9034 346.573 17.4809L341.044 19.8954C340.563 18.5755 339.745 17.5131 338.591 16.7083C337.47 15.9034 336.171 15.501 334.697 15.501C333.318 15.501 332.084 15.839 330.994 16.5151C329.936 17.1911 329.103 18.1247 328.494 19.3159C327.885 20.507 327.58 21.8752 327.58 23.4205C327.58 24.9658 327.885 26.334 328.494 27.5251C329.103 28.7163 329.936 29.6499 330.994 30.326C332.084 31.002 333.318 31.34 334.697 31.34C336.203 31.34 337.518 30.9376 338.64 30.1328C339.762 29.328 340.563 28.2495 341.044 26.8974L346.573 29.4084C346.06 30.8893 345.227 32.2253 344.073 33.4165C342.919 34.5755 341.541 35.493 339.938 36.169C338.335 36.8129 336.588 37.1348 334.697 37.1348Z" fill="#352E76"/>
<path d="M360.681 37.1348C358.661 37.1348 356.898 36.6841 355.392 35.7827C353.917 34.8813 352.779 33.6258 351.978 32.0161C351.208 30.4064 350.824 28.5231 350.824 26.3662V10.2857H357.123V25.835C357.123 26.9296 357.331 27.8954 357.748 28.7324C358.197 29.5372 358.822 30.1811 359.623 30.664C360.457 31.1147 361.386 31.34 362.412 31.34C363.438 31.34 364.351 31.1147 365.153 30.664C365.954 30.1811 366.579 29.5211 367.028 28.6841C367.477 27.8471 367.701 26.8491 367.701 25.6901V10.2857H374V36.5553H368.038V31.3883L368.567 32.3058C367.958 33.9155 366.948 35.1227 365.537 35.9276C364.159 36.7324 362.54 37.1348 360.681 37.1348Z" fill="#352E76"/>
</svg>
