<svg width="91" height="21" viewBox="0 0 91 21" fill="none" xmlns="http://www.w3.org/2000/svg">
<path d="M18.3809 3.18351L20.895 7.6516L13.2409 10.5L20.895 13.3484L18.325 17.9282L11.9559 12.9016L13.1292 21H7.98926L9.05077 12.9016L2.68171 18.0399L0 13.2926L7.59817 10.4441L0 7.70745L2.56997 3.12766L9.10664 8.15426L7.98926 0H13.1851L11.9559 8.15426L18.3809 3.18351Z" fill="#7F8080"/>
<path d="M46.5336 3.18351L49.0477 7.6516L41.3936 10.5L49.0477 13.3484L46.4777 17.9282L40.1086 12.9016L41.2819 21H36.142L37.2035 12.9016L30.8344 18.0399L28.1527 13.2926L35.7509 10.4441L28.1527 7.70745L30.7227 3.12766L37.2593 8.15426L36.142 0H41.3378L40.1086 8.15426L46.5336 3.18351Z" fill="#7F8080"/>
<path d="M91 15.0798V21H59.8251V15.0798H91Z" fill="#7F8080"/>
</svg>
