<svg width="82" height="38" viewBox="0 0 82 38" fill="none" xmlns="http://www.w3.org/2000/svg">
<path d="M64.6185 12.397C63.1824 12.397 62.0146 13.5682 62.0146 15.0095V17.5541H67.2275V15.0095C67.2275 13.5682 66.0546 12.397 64.6185 12.397Z" fill="#7F8080"/>
<path d="M71.8529 0H10.0615C4.53144 0 0 4.53492 0 10.065V27.8074C0 33.3462 4.53144 37.8724 10.0615 37.8724H71.8529C77.383 37.8724 81.9145 33.3462 81.9145 27.8074V10.065C81.9145 4.53492 77.383 0 71.8529 0ZM21.8903 21.6847L24.3042 24.3129L20.1231 27.4501L18.4081 24.3129C18.1554 23.865 17.7598 22.9866 17.2038 21.6847C16.5955 23.1156 16.1912 23.987 15.9908 24.3129L14.2514 27.4501L9.95348 24.3129L12.5521 21.6847C13.2841 20.9614 13.9934 20.3409 14.6941 19.832C13.9795 19.7675 13.0401 19.6351 11.8811 19.4172L8.28208 18.8316L9.95174 13.9307L13.1795 15.3982C13.5194 15.5515 14.3647 16.0343 15.7102 16.8343C15.4226 15.5324 15.2378 14.5651 15.1542 13.9307L14.6958 10.4223H19.8216L19.4068 13.9307C19.3161 14.7847 19.1174 15.752 18.8229 16.8343C19.4137 16.538 19.8041 16.3411 19.9889 16.233C20.6372 15.8722 21.1374 15.623 21.4738 15.4627L24.7033 13.9307L26.3033 18.8316L22.7321 19.5776C22.0786 19.703 21.1095 19.785 19.8216 19.832C20.6947 20.5152 21.3779 21.1287 21.8903 21.6847ZM45.5532 21.6847L47.9705 24.3129L43.7894 27.4483L42.0762 24.3129C41.8234 23.865 41.4278 22.9866 40.8736 21.6847C40.2636 23.1156 39.8627 23.987 39.6623 24.3129L37.9194 27.4483L33.6233 24.3129L36.2219 21.6847C36.9539 20.9614 37.6615 20.3409 38.3639 19.832C37.6528 19.7675 36.7099 19.6351 35.5509 19.4172L31.9501 18.8316L33.6215 13.9307L36.8511 15.3982C37.1874 15.5515 38.0362 16.0343 39.3799 16.8343C39.0854 15.5324 38.9007 14.5651 38.8222 13.9307L38.3621 10.4258H43.4896L43.0731 13.9307C42.979 14.7847 42.7838 15.752 42.4927 16.8343C43.08 16.538 43.4704 16.3411 43.6569 16.233C44.3018 15.8722 44.8037 15.623 45.1418 15.4627L48.3731 13.9307L49.9748 18.8316L46.4002 19.5776C45.7466 19.703 44.7811 19.785 43.4914 19.832C44.3576 20.5152 45.0425 21.1287 45.5532 21.6847ZM72.0673 26.1255C72.0673 27.2043 71.1837 28.0862 70.1066 28.0862H59.1353C58.0564 28.0862 57.1746 27.2043 57.1746 26.1255V19.5131C57.1746 18.4342 58.0564 17.5524 59.1353 17.5524H59.4002V15.0078C59.4002 12.1268 61.7409 9.78268 64.6183 9.78268C67.4975 9.78268 69.8399 12.1251 69.8399 15.0078V17.5524H70.1048C71.1802 17.5524 72.0656 18.4342 72.0656 19.5131L72.0673 26.1255Z" fill="#7F8080"/>
</svg>
